<?xml version="1.0" encoding="utf-8"?>

<svg version="1.1" id="Layer_1" xmlns="http://www.w3.org/2000/svg" xmlns:xlink="http://www.w3.org/1999/xlink" x="0px" y="0px" viewBox="0 0 1366 768" style="enable-background:new 0 0 1366 768;" xml:space="preserve">

<g>
&#x9;<path class="st0" d="M367.32,316.72v-31.99h-21.6v31.99H333.6V244.6h12.12v29.24h21.6V244.6h12.12v72.12H367.32z"></path>
&#x9;<path class="st0" d="M425.04,317.4l-12.87-58.74l-9.64,43.46l-3.67,15.28h-12.22l17.93-72.12h15.59l17.62,72.12H425.04z"></path>
&#x9;<path class="st0" d="M477.23,316.72l-20.47-50.93h-0.31l0.2,50.93h-11V244.6h13.96l20.27,51.24h0.31l-0.1-51.24h10.59v72.12H477.23&#xA;&#x9;&#x9;z"></path>
&#x9;<path class="st0" d="M548.94,332h-50.93v-7.64h50.93V332z"></path>
</g>
<path class="st0" d="M432.07,293.82l-45.14,11.28l-2.06-8.12l44.96-11.49L432.07,293.82z"></path>
<g id="_x32_odd2o.tif">
&#x9;
&#x9;&#x9;<image style="display:none;overflow:visible;" width="287" height="119" id="Layer_1_1_" transform="matrix(2.3484 0 0 2.3277 321 235)">
&#x9;</image>
</g>
</svg>